<svg width="163" height="40" viewBox="0 0 163 40" fill="none" xmlns="http://www.w3.org/2000/svg">
<rect x="-6.10352e-05" y="-0.00012207" width="163" height="40" rx="10" fill="#EEE8E0"/>
<path d="M36.9225 16.4974V16.4374C36.9264 16.4063 36.9264 16.3748 36.9225 16.3437C36.9243 16.325 36.9243 16.3061 36.9225 16.2874C36.9168 16.2497 36.9055 16.213 36.8887 16.1787C36.8887 16.1787 36.8887 16.1562 36.8887 16.1449L34.875 12.0012C34.8296 11.9065 34.7583 11.8267 34.6693 11.7709C34.5804 11.7152 34.4774 11.6858 34.3725 11.6862H19.6425C19.5375 11.6858 19.4346 11.7152 19.3456 11.7709C19.2567 11.8267 19.1854 11.9065 19.14 12.0012L17.1187 16.1262C17.1187 16.1262 17.1187 16.1487 17.1187 16.1599C17.102 16.1942 17.0906 16.2309 17.085 16.2687C17.0831 16.2874 17.0831 16.3062 17.085 16.3249C17.0811 16.356 17.0811 16.3875 17.085 16.4187V16.4787C17.0902 16.5067 17.0978 16.5343 17.1075 16.5612C17.1075 16.5837 17.1262 16.6024 17.1337 16.6212C17.1397 16.6369 17.1472 16.652 17.1562 16.6662L17.1825 16.6962C17.1811 16.7061 17.1811 16.7162 17.1825 16.7262L26.5575 28.0924L26.58 28.1187C26.5945 28.1344 26.6108 28.1482 26.6287 28.1599C26.6349 28.1615 26.6413 28.1615 26.6475 28.1599L26.685 28.1824H26.7037L26.7712 28.2049H26.8087H26.8275C26.8524 28.207 26.8775 28.207 26.9025 28.2049H27C27.0249 28.207 27.05 28.207 27.075 28.2049H27.0937H27.1312L27.1987 28.1824L27.2362 28.1599C27.2424 28.1615 27.2488 28.1615 27.255 28.1599C27.2729 28.1482 27.2893 28.1344 27.3037 28.1187L27.3262 28.0924L36.7012 16.7262V16.6962L36.7275 16.6662C36.7365 16.652 36.744 16.6369 36.75 16.6212C36.75 16.6024 36.7687 16.5837 36.7762 16.5612C36.8279 16.5474 36.8772 16.526 36.9225 16.4974ZM35.475 15.8224H33.18L31.92 12.8224H34.005L35.475 15.8224ZM22.0425 15.8224L23.2987 12.8224H30.7012L31.9575 15.8224H22.0425ZM31.8187 16.9474L27 26.5024L22.1775 16.9474H31.8187ZM19.995 12.8224H22.08L20.82 15.8224H18.525L19.995 12.8224ZM20.925 16.9474L24.2362 23.5174L18.8175 16.9474H20.925ZM29.7675 23.5099L33.0787 16.9474H35.1825L29.7675 23.5099Z" fill="black"/>
<path d="M67.9399 16.5299H65.7699V23.4999H67.9399C70.2299 23.4999 71.6399 22.1899 71.6399 20.0299C71.6399 17.8699 70.2299 16.5299 67.9399 16.5299ZM66.6799 22.7499V17.2699H67.9399C69.7599 17.2699 70.7099 18.3299 70.7099 20.0299C70.7099 21.7299 69.7599 22.7499 67.9399 22.7499H66.6799ZM75.1703 18.6999C76.1103 18.6999 76.9103 19.2899 76.9003 20.3599H73.4403C73.5403 19.2899 74.2803 18.6999 75.1703 18.6999ZM77.7303 21.8099H76.7503C76.5503 22.3999 76.0303 22.8199 75.2103 22.8199C74.2803 22.8199 73.5003 22.2099 73.4303 21.0999H77.8103C77.8303 20.9099 77.8403 20.7499 77.8403 20.5499C77.8403 19.0499 76.8003 17.9299 75.2103 17.9299C73.6103 17.9299 72.5003 19.0199 72.5003 20.7499C72.5003 22.4899 73.6503 23.5899 75.2103 23.5899C76.5703 23.5899 77.4503 22.8099 77.7303 21.8099ZM79.0414 23.4999H79.9514V16.0999H79.0414V23.4999ZM86.3624 18.0199H85.4524V21.0299C85.4524 22.2099 84.8224 22.7899 83.8824 22.7899C82.9624 22.7899 82.3524 22.2199 82.3524 21.1099V18.0199H81.4524V21.2299C81.4524 22.7999 82.4424 23.5799 83.7024 23.5799C84.4324 23.5799 85.1024 23.2599 85.4524 22.6899V23.4999H86.3624V18.0199ZM90.7588 23.4999H91.7888L90.0188 20.7299L91.7788 18.0199H90.8288L89.5888 20.0499L88.2888 18.0199H87.2588L89.0288 20.7799L87.2588 23.4999H88.2088L89.4588 21.4599L90.7588 23.4999ZM95.014 18.6999C95.954 18.6999 96.754 19.2899 96.744 20.3599H93.284C93.384 19.2899 94.124 18.6999 95.014 18.6999ZM97.574 21.8099H96.594C96.394 22.3999 95.874 22.8199 95.054 22.8199C94.124 22.8199 93.344 22.2099 93.274 21.0999H97.654C97.674 20.9099 97.684 20.7499 97.684 20.5499C97.684 19.0499 96.644 17.9299 95.054 17.9299C93.454 17.9299 92.344 19.0199 92.344 20.7499C92.344 22.4899 93.494 23.5899 95.054 23.5899C96.414 23.5899 97.294 22.8099 97.574 21.8099ZM104.161 22.5399L101.971 16.5299H101.001L103.631 23.4999H104.681L107.311 16.5299H106.351L104.161 22.5399ZM107.969 20.7399C107.969 22.4399 109.099 23.5899 110.559 23.5899C111.569 23.5899 112.279 23.0699 112.609 22.4799V23.4999H113.529V18.0199H112.609V19.0199C112.289 18.4499 111.589 17.9299 110.569 17.9299C109.099 17.9299 107.969 19.0299 107.969 20.7399ZM112.609 20.7499C112.609 22.0399 111.749 22.7899 110.749 22.7899C109.749 22.7899 108.899 22.0299 108.899 20.7399C108.899 19.4499 109.749 18.7199 110.749 18.7199C111.749 18.7199 112.609 19.4799 112.609 20.7499ZM115.977 20.5199C115.977 19.2499 116.637 18.8599 117.507 18.8599H117.747V17.9199C116.877 17.9199 116.287 18.2999 115.977 18.9099V18.0199H115.067V23.4999H115.977V20.5199ZM121.127 18.6999C122.067 18.6999 122.867 19.2899 122.857 20.3599H119.397C119.497 19.2899 120.237 18.6999 121.127 18.6999ZM123.687 21.8099H122.707C122.507 22.3999 121.987 22.8199 121.167 22.8199C120.237 22.8199 119.457 22.2099 119.387 21.0999H123.767C123.787 20.9099 123.797 20.7499 123.797 20.5499C123.797 19.0499 122.757 17.9299 121.167 17.9299C119.567 17.9299 118.457 19.0199 118.457 20.7499C118.457 22.4899 119.607 23.5899 121.167 23.5899C122.527 23.5899 123.407 22.8099 123.687 21.8099ZM125.908 20.5199C125.908 19.2499 126.568 18.8599 127.438 18.8599H127.678V17.9199C126.808 17.9199 126.218 18.2999 125.908 18.9099V18.0199H124.998V23.4999H125.908V20.5199Z" fill="black"/>
</svg>
