<svg width="198" height="40" viewBox="0 0 198 40" fill="none" xmlns="http://www.w3.org/2000/svg">
<rect x="-6.10352e-05" y="-0.00012207" width="198.001" height="40" rx="10" fill="#EEE8E0"/>
<path d="M40.1597 24.9348L32.3747 17.9786L34.2235 16.1336L34.6547 16.5648C34.6896 16.6 34.7311 16.6279 34.7768 16.6469C34.8225 16.6659 34.8715 16.6758 34.921 16.6758C34.9705 16.6758 35.0195 16.6659 35.0652 16.6469C35.1109 16.6279 35.1524 16.6 35.1872 16.5648L35.7797 15.9723C35.9226 15.8295 36.0359 15.66 36.1133 15.4734C36.1906 15.2868 36.2304 15.0868 36.2304 14.8848C36.2304 14.6829 36.1906 14.4828 36.1133 14.2962C36.0359 14.1096 35.9226 13.9401 35.7797 13.7973L31.5835 9.60107C31.2946 9.31346 30.9036 9.15198 30.496 9.15198C30.0884 9.15198 29.6973 9.31346 29.4085 9.60107L28.816 10.1973C28.7461 10.2676 28.7069 10.3626 28.7069 10.4617C28.7069 10.5608 28.7461 10.6558 28.816 10.7261L29.4422 11.3523L23.5472 17.2473L22.921 16.6248C22.8507 16.555 22.7557 16.5158 22.6566 16.5158C22.5575 16.5158 22.4625 16.555 22.3922 16.6248L21.796 17.2173C21.6531 17.3601 21.5398 17.5296 21.4625 17.7162C21.3851 17.9028 21.3453 18.1029 21.3453 18.3048C21.3453 18.5068 21.3851 18.7068 21.4625 18.8934C21.5398 19.08 21.6531 19.2495 21.796 19.3923L25.9922 23.5848C26.135 23.7277 26.3045 23.841 26.4911 23.9184C26.6777 23.9957 26.8778 24.0355 27.0797 24.0355C27.2817 24.0355 27.4817 23.9957 27.6683 23.9184C27.8549 23.841 28.0244 23.7277 28.1672 23.5848L28.7597 22.9998C28.7949 22.965 28.8228 22.9235 28.8418 22.8778C28.8608 22.8321 28.8707 22.7831 28.8707 22.7336C28.8707 22.6841 28.8608 22.6351 28.8418 22.5894C28.8228 22.5436 28.7949 22.5022 28.7597 22.4673L28.3285 22.0361L30.1735 20.1873L37.126 27.9648C37.3211 28.1814 37.5582 28.3561 37.8229 28.4783C38.0875 28.6005 38.3742 28.6677 38.6656 28.6757C38.957 28.6838 39.247 28.6326 39.518 28.5252C39.7891 28.4178 40.0354 28.2565 40.2422 28.0511C40.4479 27.8445 40.6095 27.5983 40.7172 27.3275C40.8249 27.0566 40.8764 26.7667 40.8687 26.4753C40.861 26.1839 40.7942 25.8971 40.6723 25.6323C40.5505 25.3675 40.3761 25.1302 40.1597 24.9348ZM29.941 10.1336C30.0915 9.98697 30.2933 9.90494 30.5035 9.90494C30.7136 9.90494 30.9154 9.98697 31.066 10.1336L35.251 14.3298C35.3254 14.4034 35.3844 14.491 35.4247 14.5876C35.465 14.6841 35.4857 14.7877 35.4857 14.8923C35.4857 14.997 35.465 15.1005 35.4247 15.1971C35.3844 15.2937 35.3254 15.3813 35.251 15.4548L34.921 15.7848L29.626 10.4598L29.941 10.1336ZM27.6347 23.0561C27.5612 23.1304 27.4736 23.1895 27.377 23.2298C27.2804 23.2701 27.1769 23.2908 27.0722 23.2908C26.9676 23.2908 26.864 23.2701 26.7675 23.2298C26.6709 23.1895 26.5833 23.1304 26.5097 23.0561L22.3285 18.8748C22.2548 18.8016 22.1963 18.7146 22.1564 18.6187C22.1165 18.5228 22.096 18.42 22.096 18.3161C22.0943 18.2109 22.1141 18.1064 22.1541 18.0091C22.194 17.9117 22.2534 17.8235 22.3285 17.7498L22.6547 17.4198L27.9647 22.7261L27.6347 23.0561ZM24.076 17.7761L29.971 11.8811L33.691 15.6011L27.796 21.4998L24.076 17.7761ZM39.7172 27.5261C39.5822 27.6592 39.4217 27.7636 39.2454 27.8331C39.069 27.9026 38.8804 27.9357 38.6909 27.9305C38.5014 27.9252 38.3149 27.8817 38.1426 27.8026C37.9704 27.7234 37.8159 27.6102 37.6885 27.4698L30.706 19.6511L31.831 18.5261L39.661 25.4936C39.8014 25.621 39.9146 25.7755 39.9937 25.9477C40.0729 26.12 40.1164 26.3065 40.1216 26.496C40.1269 26.6855 40.0938 26.8741 40.0243 27.0505C39.9548 27.2268 39.8503 27.3873 39.7172 27.5223V27.5261Z" fill="black"/>
<path d="M32.1459 30.125H31.4484V28.2125C31.4484 28.1131 31.4089 28.0177 31.3386 27.9474C31.2683 27.877 31.1729 27.8375 31.0734 27.8375H30.5034V27.0875C30.5034 26.9881 30.4639 26.8927 30.3936 26.8224C30.3233 26.752 30.2279 26.7125 30.1284 26.7125H21.5034C21.404 26.7125 21.3086 26.752 21.2382 26.8224C21.1679 26.8927 21.1284 26.9881 21.1284 27.0875V27.8375H20.5734C20.474 27.8375 20.3786 27.877 20.3082 27.9474C20.2379 28.0177 20.1984 28.1131 20.1984 28.2125V30.125H19.5009C19.4015 30.125 19.3061 30.1645 19.2357 30.2349C19.1654 30.3052 19.1259 30.4006 19.1259 30.5C19.1259 30.5995 19.1654 30.6949 19.2357 30.7652C19.3061 30.8355 19.4015 30.875 19.5009 30.875H32.1459C32.2454 30.875 32.3408 30.8355 32.4111 30.7652C32.4814 30.6949 32.5209 30.5995 32.5209 30.5C32.5209 30.4006 32.4814 30.3052 32.4111 30.2349C32.3408 30.1645 32.2454 30.125 32.1459 30.125ZM21.8934 27.4438H29.7684V27.8188H21.8934V27.4438ZM20.9484 30.125V28.5875H30.6984V30.125H20.9484Z" fill="black"/>
<path d="M74.1409 16.5299V23.4999H73.2309V20.3399H69.6809V23.4999H68.7709V16.5299H69.6809V19.5899H73.2309V16.5299H74.1409ZM75.3547 20.7399C75.3547 20.1799 75.4681 19.6899 75.6947 19.2699C75.9214 18.8432 76.2314 18.5132 76.6247 18.2799C77.0247 18.0465 77.4681 17.9299 77.9547 17.9299C78.4347 17.9299 78.8514 18.0332 79.2047 18.2399C79.5581 18.4465 79.8214 18.7065 79.9947 19.0199V18.0199H80.9147V23.4999H79.9947V22.4799C79.8147 22.7999 79.5447 23.0665 79.1847 23.2799C78.8314 23.4865 78.4181 23.5899 77.9447 23.5899C77.4581 23.5899 77.0181 23.4699 76.6247 23.2299C76.2314 22.9899 75.9214 22.6532 75.6947 22.2199C75.4681 21.7865 75.3547 21.2932 75.3547 20.7399ZM79.9947 20.7499C79.9947 20.3365 79.9114 19.9765 79.7447 19.6699C79.5781 19.3632 79.3514 19.1299 79.0647 18.9699C78.7847 18.8032 78.4747 18.7199 78.1347 18.7199C77.7947 18.7199 77.4847 18.7999 77.2047 18.9599C76.9247 19.1199 76.7014 19.3532 76.5347 19.6599C76.3681 19.9665 76.2847 20.3265 76.2847 20.7399C76.2847 21.1599 76.3681 21.5265 76.5347 21.8399C76.7014 22.1465 76.9247 22.3832 77.2047 22.5499C77.4847 22.7099 77.7947 22.7899 78.1347 22.7899C78.4747 22.7899 78.7847 22.7099 79.0647 22.5499C79.3514 22.3832 79.5781 22.1465 79.7447 21.8399C79.9114 21.5265 79.9947 21.1632 79.9947 20.7499ZM89.0426 17.9199C89.4692 17.9199 89.8492 18.0099 90.1826 18.1899C90.5159 18.3632 90.7792 18.6265 90.9726 18.9799C91.1659 19.3332 91.2626 19.7632 91.2626 20.2699V23.4999H90.3626V20.3999C90.3626 19.8532 90.2259 19.4365 89.9526 19.1499C89.6859 18.8565 89.3226 18.7099 88.8626 18.7099C88.3892 18.7099 88.0126 18.8632 87.7326 19.1699C87.4526 19.4699 87.3126 19.9065 87.3126 20.4799V23.4999H86.4126V20.3999C86.4126 19.8532 86.2759 19.4365 86.0026 19.1499C85.7359 18.8565 85.3726 18.7099 84.9126 18.7099C84.4392 18.7099 84.0626 18.8632 83.7826 19.1699C83.5026 19.4699 83.3626 19.9065 83.3626 20.4799V23.4999H82.4526V18.0199H83.3626V18.8099C83.5426 18.5232 83.7826 18.3032 84.0826 18.1499C84.3892 17.9965 84.7259 17.9199 85.0926 17.9199C85.5526 17.9199 85.9592 18.0232 86.3126 18.2299C86.6659 18.4365 86.9292 18.7399 87.1026 19.1399C87.2559 18.7532 87.5092 18.4532 87.8626 18.2399C88.2159 18.0265 88.6092 17.9199 89.0426 17.9199ZM99.3453 17.9199C99.772 17.9199 100.152 18.0099 100.485 18.1899C100.819 18.3632 101.082 18.6265 101.275 18.9799C101.469 19.3332 101.565 19.7632 101.565 20.2699V23.4999H100.665V20.3999C100.665 19.8532 100.529 19.4365 100.255 19.1499C99.9886 18.8565 99.6253 18.7099 99.1653 18.7099C98.692 18.7099 98.3153 18.8632 98.0353 19.1699C97.7553 19.4699 97.6153 19.9065 97.6153 20.4799V23.4999H96.7153V20.3999C96.7153 19.8532 96.5786 19.4365 96.3053 19.1499C96.0386 18.8565 95.6753 18.7099 95.2153 18.7099C94.742 18.7099 94.3653 18.8632 94.0853 19.1699C93.8053 19.4699 93.6653 19.9065 93.6653 20.4799V23.4999H92.7553V18.0199H93.6653V18.8099C93.8453 18.5232 94.0853 18.3032 94.3853 18.1499C94.692 17.9965 95.0286 17.9199 95.3953 17.9199C95.8553 17.9199 96.262 18.0232 96.6153 18.2299C96.9686 18.4365 97.232 18.7399 97.4053 19.1399C97.5586 18.7532 97.812 18.4532 98.1653 18.2399C98.5186 18.0265 98.912 17.9199 99.3453 17.9199ZM108.058 20.5499C108.058 20.7232 108.048 20.9065 108.028 21.0999H103.648C103.681 21.6399 103.865 22.0632 104.198 22.3699C104.538 22.6699 104.948 22.8199 105.428 22.8199C105.821 22.8199 106.148 22.7299 106.408 22.5499C106.675 22.3632 106.861 22.1165 106.968 21.8099H107.948C107.801 22.3365 107.508 22.7665 107.068 23.0999C106.628 23.4265 106.081 23.5899 105.428 23.5899C104.908 23.5899 104.441 23.4732 104.028 23.2399C103.621 23.0065 103.301 22.6765 103.068 22.2499C102.835 21.8165 102.718 21.3165 102.718 20.7499C102.718 20.1832 102.831 19.6865 103.058 19.2599C103.285 18.8332 103.601 18.5065 104.008 18.2799C104.421 18.0465 104.895 17.9299 105.428 17.9299C105.948 17.9299 106.408 18.0432 106.808 18.2699C107.208 18.4965 107.515 18.8099 107.728 19.2099C107.948 19.6032 108.058 20.0499 108.058 20.5499ZM107.118 20.3599C107.118 20.0132 107.041 19.7165 106.888 19.4699C106.735 19.2165 106.525 19.0265 106.258 18.8999C105.998 18.7665 105.708 18.6999 105.388 18.6999C104.928 18.6999 104.535 18.8465 104.208 19.1399C103.888 19.4332 103.705 19.8399 103.658 20.3599H107.118ZM110.169 18.9099C110.329 18.5965 110.556 18.3532 110.849 18.1799C111.149 18.0065 111.513 17.9199 111.939 17.9199V18.8599H111.699C110.679 18.8599 110.169 19.4132 110.169 20.5199V23.4999H109.259V18.0199H110.169V18.9099ZM114.93 23.5899C114.51 23.5899 114.133 23.5199 113.8 23.3799C113.466 23.2332 113.203 23.0332 113.01 22.7799C112.816 22.5199 112.71 22.2232 112.69 21.8899H113.63C113.656 22.1632 113.783 22.3865 114.01 22.5599C114.243 22.7332 114.546 22.8199 114.92 22.8199C115.266 22.8199 115.54 22.7432 115.74 22.5899C115.94 22.4365 116.04 22.2432 116.04 22.0099C116.04 21.7699 115.933 21.5932 115.72 21.4799C115.506 21.3599 115.176 21.2432 114.73 21.1299C114.323 21.0232 113.99 20.9165 113.73 20.8099C113.476 20.6965 113.256 20.5332 113.07 20.3199C112.89 20.0999 112.8 19.8132 112.8 19.4599C112.8 19.1799 112.883 18.9232 113.05 18.6899C113.216 18.4565 113.453 18.2732 113.76 18.1399C114.066 17.9999 114.416 17.9299 114.81 17.9299C115.416 17.9299 115.906 18.0832 116.28 18.3899C116.653 18.6965 116.853 19.1165 116.88 19.6499H115.97C115.95 19.3632 115.833 19.1332 115.62 18.9599C115.413 18.7865 115.133 18.6999 114.78 18.6999C114.453 18.6999 114.193 18.7699 114 18.9099C113.806 19.0499 113.71 19.2332 113.71 19.4599C113.71 19.6399 113.766 19.7899 113.88 19.9099C114 20.0232 114.146 20.1165 114.32 20.1899C114.5 20.2565 114.746 20.3332 115.06 20.4199C115.453 20.5265 115.773 20.6332 116.02 20.7399C116.266 20.8399 116.476 20.9932 116.65 21.1999C116.83 21.4065 116.923 21.6765 116.93 22.0099C116.93 22.3099 116.846 22.5799 116.68 22.8199C116.513 23.0599 116.276 23.2499 115.97 23.3899C115.67 23.5232 115.323 23.5899 114.93 23.5899ZM119.124 16.0999V23.4999H118.214V16.0999H119.124ZM120.335 20.7399C120.335 20.1799 120.449 19.6899 120.675 19.2699C120.902 18.8432 121.212 18.5132 121.605 18.2799C122.005 18.0465 122.449 17.9299 122.935 17.9299C123.415 17.9299 123.832 18.0332 124.185 18.2399C124.539 18.4465 124.802 18.7065 124.975 19.0199V18.0199H125.895V23.4999H124.975V22.4799C124.795 22.7999 124.525 23.0665 124.165 23.2799C123.812 23.4865 123.399 23.5899 122.925 23.5899C122.439 23.5899 121.999 23.4699 121.605 23.2299C121.212 22.9899 120.902 22.6532 120.675 22.2199C120.449 21.7865 120.335 21.2932 120.335 20.7399ZM124.975 20.7499C124.975 20.3365 124.892 19.9765 124.725 19.6699C124.559 19.3632 124.332 19.1299 124.045 18.9699C123.765 18.8032 123.455 18.7199 123.115 18.7199C122.775 18.7199 122.465 18.7999 122.185 18.9599C121.905 19.1199 121.682 19.3532 121.515 19.6599C121.349 19.9665 121.265 20.3265 121.265 20.7399C121.265 21.1599 121.349 21.5265 121.515 21.8399C121.682 22.1465 121.905 22.3832 122.185 22.5499C122.465 22.7099 122.775 22.7899 123.115 22.7899C123.455 22.7899 123.765 22.7099 124.045 22.5499C124.332 22.3832 124.559 22.1465 124.725 21.8399C124.892 21.5265 124.975 21.1632 124.975 20.7499ZM129.693 17.9299C130.166 17.9299 130.58 18.0332 130.933 18.2399C131.293 18.4465 131.56 18.7065 131.733 19.0199V18.0199H132.653V23.6199C132.653 24.1199 132.546 24.5632 132.333 24.9499C132.12 25.3432 131.813 25.6499 131.413 25.8699C131.02 26.0899 130.56 26.1999 130.033 26.1999C129.313 26.1999 128.713 26.0299 128.233 25.6899C127.753 25.3499 127.47 24.8865 127.383 24.2999H128.283C128.383 24.6332 128.59 24.8999 128.903 25.0999C129.216 25.3065 129.593 25.4099 130.033 25.4099C130.533 25.4099 130.94 25.2532 131.253 24.9399C131.573 24.6265 131.733 24.1865 131.733 23.6199V22.4699C131.553 22.7899 131.286 23.0565 130.933 23.2699C130.58 23.4832 130.166 23.5899 129.693 23.5899C129.206 23.5899 128.763 23.4699 128.363 23.2299C127.97 22.9899 127.66 22.6532 127.433 22.2199C127.206 21.7865 127.093 21.2932 127.093 20.7399C127.093 20.1799 127.206 19.6899 127.433 19.2699C127.66 18.8432 127.97 18.5132 128.363 18.2799C128.763 18.0465 129.206 17.9299 129.693 17.9299ZM131.733 20.7499C131.733 20.3365 131.65 19.9765 131.483 19.6699C131.316 19.3632 131.09 19.1299 130.803 18.9699C130.523 18.8032 130.213 18.7199 129.873 18.7199C129.533 18.7199 129.223 18.7999 128.943 18.9599C128.663 19.1199 128.44 19.3532 128.273 19.6599C128.106 19.9665 128.023 20.3265 128.023 20.7399C128.023 21.1599 128.106 21.5265 128.273 21.8399C128.44 22.1465 128.663 22.3832 128.943 22.5499C129.223 22.7099 129.533 22.7899 129.873 22.7899C130.213 22.7899 130.523 22.7099 130.803 22.5499C131.09 22.3832 131.316 22.1465 131.483 21.8399C131.65 21.5265 131.733 21.1632 131.733 20.7499ZM138.897 22.6599L140.597 18.0199H141.567L139.417 23.4999H138.357L136.207 18.0199H137.187L138.897 22.6599ZM142.122 20.7399C142.122 20.1799 142.236 19.6899 142.462 19.2699C142.689 18.8432 142.999 18.5132 143.392 18.2799C143.792 18.0465 144.236 17.9299 144.722 17.9299C145.202 17.9299 145.619 18.0332 145.972 18.2399C146.326 18.4465 146.589 18.7065 146.762 19.0199V18.0199H147.682V23.4999H146.762V22.4799C146.582 22.7999 146.312 23.0665 145.952 23.2799C145.599 23.4865 145.186 23.5899 144.712 23.5899C144.226 23.5899 143.786 23.4699 143.392 23.2299C142.999 22.9899 142.689 22.6532 142.462 22.2199C142.236 21.7865 142.122 21.2932 142.122 20.7399ZM146.762 20.7499C146.762 20.3365 146.679 19.9765 146.512 19.6699C146.346 19.3632 146.119 19.1299 145.832 18.9699C145.552 18.8032 145.242 18.7199 144.902 18.7199C144.562 18.7199 144.252 18.7999 143.972 18.9599C143.692 19.1199 143.469 19.3532 143.302 19.6599C143.136 19.9665 143.052 20.3265 143.052 20.7399C143.052 21.1599 143.136 21.5265 143.302 21.8399C143.469 22.1465 143.692 22.3832 143.972 22.5499C144.252 22.7099 144.562 22.7899 144.902 22.7899C145.242 22.7899 145.552 22.7099 145.832 22.5499C146.119 22.3832 146.346 22.1465 146.512 21.8399C146.679 21.5265 146.762 21.1632 146.762 20.7499ZM150.13 18.9099C150.29 18.5965 150.517 18.3532 150.81 18.1799C151.11 18.0065 151.473 17.9199 151.9 17.9199V18.8599H151.66C150.64 18.8599 150.13 19.4132 150.13 20.5199V23.4999H149.22V18.0199H150.13V18.9099ZM157.951 20.5499C157.951 20.7232 157.941 20.9065 157.921 21.0999H153.541C153.574 21.6399 153.757 22.0632 154.091 22.3699C154.431 22.6699 154.841 22.8199 155.321 22.8199C155.714 22.8199 156.041 22.7299 156.301 22.5499C156.567 22.3632 156.754 22.1165 156.861 21.8099H157.841C157.694 22.3365 157.401 22.7665 156.961 23.0999C156.521 23.4265 155.974 23.5899 155.321 23.5899C154.801 23.5899 154.334 23.4732 153.921 23.2399C153.514 23.0065 153.194 22.6765 152.961 22.2499C152.727 21.8165 152.611 21.3165 152.611 20.7499C152.611 20.1832 152.724 19.6865 152.951 19.2599C153.177 18.8332 153.494 18.5065 153.901 18.2799C154.314 18.0465 154.787 17.9299 155.321 17.9299C155.841 17.9299 156.301 18.0432 156.701 18.2699C157.101 18.4965 157.407 18.8099 157.621 19.2099C157.841 19.6032 157.951 20.0499 157.951 20.5499ZM157.011 20.3599C157.011 20.0132 156.934 19.7165 156.781 19.4699C156.627 19.2165 156.417 19.0265 156.151 18.8999C155.891 18.7665 155.601 18.6999 155.281 18.6999C154.821 18.6999 154.427 18.8465 154.101 19.1399C153.781 19.4332 153.597 19.8399 153.551 20.3599H157.011ZM160.062 18.9099C160.222 18.5965 160.448 18.3532 160.742 18.1799C161.042 18.0065 161.405 17.9199 161.832 17.9199V18.8599H161.592C160.572 18.8599 160.062 19.4132 160.062 20.5199V23.4999H159.152V18.0199H160.062V18.9099Z" fill="black"/>
</svg>
