<svg width="198" height="40" viewBox="0 0 198 40" fill="none" xmlns="http://www.w3.org/2000/svg">
<rect x="-6.10352e-05" y="-0.00012207" width="198.001" height="40" rx="10" fill="#EEE8E0"/>
<path d="M38.3838 12.5154L29.2171 10.0154C29.0757 9.97371 28.9252 9.97371 28.7838 10.0154L19.6171 12.5154C19.4353 12.5642 19.2754 12.6732 19.1634 12.8245C19.0514 12.9758 18.994 13.1606 19.0004 13.3487V25.8487C19.0005 26.02 19.0533 26.1871 19.1518 26.3272C19.2502 26.4674 19.3894 26.5738 19.5504 26.6321L28.7171 29.9654C28.8886 30.0323 29.079 30.0323 29.2504 29.9654L38.4171 26.6321C38.5844 26.5795 38.7308 26.4754 38.8355 26.3348C38.9403 26.1942 38.998 26.0241 39.0004 25.8487V13.3487C39.0069 13.1606 38.9494 12.9758 38.8375 12.8245C38.7255 12.6732 38.5656 12.5642 38.3838 12.5154ZM29.0004 11.6821L36.5004 13.7654L29.0004 15.8487L21.5004 13.7654L29.0004 11.6821ZM20.6671 16.6821V15.2737L28.1671 17.3154V27.9904L20.6671 25.2654V16.6821ZM37.3338 25.2654L29.8338 27.9904V17.3154L37.3338 15.2737V25.2737V25.2654Z" fill="black"/>
<path d="M71.2509 23.4999H70.3409L66.6809 17.9499V23.4999H65.7709V16.5199H66.6809L70.3409 22.0599V16.5199H71.2509V23.4999ZM77.5222 18.0199L74.2222 26.0799H73.2822L74.3622 23.4399L72.1522 18.0199H73.1622L74.8822 22.4599L76.5822 18.0199H77.5222ZM79.3469 19.0299C79.5269 18.7165 79.7936 18.4565 80.1469 18.2499C80.5069 18.0365 80.9236 17.9299 81.3969 17.9299C81.8836 17.9299 82.3236 18.0465 82.7169 18.2799C83.1169 18.5132 83.4303 18.8432 83.6569 19.2699C83.8836 19.6899 83.9969 20.1799 83.9969 20.7399C83.9969 21.2932 83.8836 21.7865 83.6569 22.2199C83.4303 22.6532 83.1169 22.9899 82.7169 23.2299C82.3236 23.4699 81.8836 23.5899 81.3969 23.5899C80.9303 23.5899 80.5169 23.4865 80.1569 23.2799C79.8036 23.0665 79.5336 22.8032 79.3469 22.4899V26.0999H78.4369V18.0199H79.3469V19.0299ZM83.0669 20.7399C83.0669 20.3265 82.9836 19.9665 82.8169 19.6599C82.6503 19.3532 82.4236 19.1199 82.1369 18.9599C81.8569 18.7999 81.5469 18.7199 81.2069 18.7199C80.8736 18.7199 80.5636 18.8032 80.2769 18.9699C79.9969 19.1299 79.7703 19.3665 79.5969 19.6799C79.4303 19.9865 79.3469 20.3432 79.3469 20.7499C79.3469 21.1632 79.4303 21.5265 79.5969 21.8399C79.7703 22.1465 79.9969 22.3832 80.2769 22.5499C80.5636 22.7099 80.8736 22.7899 81.2069 22.7899C81.5469 22.7899 81.8569 22.7099 82.1369 22.5499C82.4236 22.3832 82.6503 22.1465 82.8169 21.8399C82.9836 21.5265 83.0669 21.1599 83.0669 20.7399ZM86.1047 18.9099C86.2647 18.5965 86.4914 18.3532 86.7847 18.1799C87.0847 18.0065 87.4481 17.9199 87.8747 17.9199V18.8599H87.6347C86.6147 18.8599 86.1047 19.4132 86.1047 20.5199V23.4999H85.1947V18.0199H86.1047V18.9099ZM91.3152 23.5899C90.8019 23.5899 90.3352 23.4732 89.9152 23.2399C89.5019 23.0065 89.1752 22.6765 88.9352 22.2499C88.7019 21.8165 88.5852 21.3165 88.5852 20.7499C88.5852 20.1899 88.7052 19.6965 88.9452 19.2699C89.1919 18.8365 89.5252 18.5065 89.9452 18.2799C90.3652 18.0465 90.8352 17.9299 91.3552 17.9299C91.8752 17.9299 92.3452 18.0465 92.7652 18.2799C93.1852 18.5065 93.5152 18.8332 93.7552 19.2599C94.0019 19.6865 94.1252 20.1832 94.1252 20.7499C94.1252 21.3165 93.9985 21.8165 93.7452 22.2499C93.4985 22.6765 93.1619 23.0065 92.7352 23.2399C92.3085 23.4732 91.8352 23.5899 91.3152 23.5899ZM91.3152 22.7899C91.6419 22.7899 91.9485 22.7132 92.2352 22.5599C92.5219 22.4065 92.7519 22.1765 92.9252 21.8699C93.1052 21.5632 93.1952 21.1899 93.1952 20.7499C93.1952 20.3099 93.1085 19.9365 92.9352 19.6299C92.7619 19.3232 92.5352 19.0965 92.2552 18.9499C91.9752 18.7965 91.6719 18.7199 91.3452 18.7199C91.0119 18.7199 90.7052 18.7965 90.4252 18.9499C90.1519 19.0965 89.9319 19.3232 89.7652 19.6299C89.5985 19.9365 89.5152 20.3099 89.5152 20.7499C89.5152 21.1965 89.5952 21.5732 89.7552 21.8799C89.9219 22.1865 90.1419 22.4165 90.4152 22.5699C90.6885 22.7165 90.9885 22.7899 91.3152 22.7899ZM94.9817 20.7399C94.9817 20.1799 95.095 19.6899 95.3217 19.2699C95.5484 18.8432 95.8584 18.5132 96.2517 18.2799C96.6517 18.0465 97.0984 17.9299 97.5917 17.9299C98.0184 17.9299 98.415 18.0299 98.7817 18.2299C99.1484 18.4232 99.4284 18.6799 99.6217 18.9999V16.0999H100.542V23.4999H99.6217V22.4699C99.4417 22.7965 99.175 23.0665 98.8217 23.2799C98.4684 23.4865 98.055 23.5899 97.5817 23.5899C97.095 23.5899 96.6517 23.4699 96.2517 23.2299C95.8584 22.9899 95.5484 22.6532 95.3217 22.2199C95.095 21.7865 94.9817 21.2932 94.9817 20.7399ZM99.6217 20.7499C99.6217 20.3365 99.5384 19.9765 99.3717 19.6699C99.205 19.3632 98.9784 19.1299 98.6917 18.9699C98.4117 18.8032 98.1017 18.7199 97.7617 18.7199C97.4217 18.7199 97.1117 18.7999 96.8317 18.9599C96.5517 19.1199 96.3284 19.3532 96.1617 19.6599C95.995 19.9665 95.9117 20.3265 95.9117 20.7399C95.9117 21.1599 95.995 21.5265 96.1617 21.8399C96.3284 22.1465 96.5517 22.3832 96.8317 22.5499C97.1117 22.7099 97.4217 22.7899 97.7617 22.7899C98.1017 22.7899 98.4117 22.7099 98.6917 22.5499C98.9784 22.3832 99.205 22.1465 99.3717 21.8399C99.5384 21.5265 99.6217 21.1632 99.6217 20.7499ZM106.94 18.0199V23.4999H106.03V22.6899C105.856 22.9699 105.613 23.1899 105.3 23.3499C104.993 23.5032 104.653 23.5799 104.28 23.5799C103.853 23.5799 103.47 23.4932 103.13 23.3199C102.79 23.1399 102.52 22.8732 102.32 22.5199C102.126 22.1665 102.03 21.7365 102.03 21.2299V18.0199H102.93V21.1099C102.93 21.6499 103.066 22.0665 103.34 22.3599C103.613 22.6465 103.986 22.7899 104.46 22.7899C104.946 22.7899 105.33 22.6399 105.61 22.3399C105.89 22.0399 106.03 21.6032 106.03 21.0299V18.0199H106.94ZM108.136 20.7499C108.136 20.1832 108.249 19.6899 108.476 19.2699C108.703 18.8432 109.016 18.5132 109.416 18.2799C109.823 18.0465 110.286 17.9299 110.806 17.9299C111.479 17.9299 112.033 18.0932 112.466 18.4199C112.906 18.7465 113.196 19.1999 113.336 19.7799H112.356C112.263 19.4465 112.079 19.1832 111.806 18.9899C111.539 18.7965 111.206 18.6999 110.806 18.6999C110.286 18.6999 109.866 18.8799 109.546 19.2399C109.226 19.5932 109.066 20.0965 109.066 20.7499C109.066 21.4099 109.226 21.9199 109.546 22.2799C109.866 22.6399 110.286 22.8199 110.806 22.8199C111.206 22.8199 111.539 22.7265 111.806 22.5399C112.073 22.3532 112.256 22.0865 112.356 21.7399H113.336C113.189 22.2999 112.896 22.7499 112.456 23.0899C112.016 23.4232 111.466 23.5899 110.806 23.5899C110.286 23.5899 109.823 23.4732 109.416 23.2399C109.016 23.0065 108.703 22.6765 108.476 22.2499C108.249 21.8232 108.136 21.3232 108.136 20.7499ZM119.55 20.5499C119.55 20.7232 119.54 20.9065 119.52 21.0999H115.14C115.174 21.6399 115.357 22.0632 115.69 22.3699C116.03 22.6699 116.44 22.8199 116.92 22.8199C117.314 22.8199 117.64 22.7299 117.9 22.5499C118.167 22.3632 118.354 22.1165 118.46 21.8099H119.44C119.294 22.3365 119 22.7665 118.56 23.0999C118.12 23.4265 117.574 23.5899 116.92 23.5899C116.4 23.5899 115.934 23.4732 115.52 23.2399C115.114 23.0065 114.794 22.6765 114.56 22.2499C114.327 21.8165 114.21 21.3165 114.21 20.7499C114.21 20.1832 114.324 19.6865 114.55 19.2599C114.777 18.8332 115.094 18.5065 115.5 18.2799C115.914 18.0465 116.387 17.9299 116.92 17.9299C117.44 17.9299 117.9 18.0432 118.3 18.2699C118.7 18.4965 119.007 18.8099 119.22 19.2099C119.44 19.6032 119.55 20.0499 119.55 20.5499ZM118.61 20.3599C118.61 20.0132 118.534 19.7165 118.38 19.4699C118.227 19.2165 118.017 19.0265 117.75 18.8999C117.49 18.7665 117.2 18.6999 116.88 18.6999C116.42 18.6999 116.027 18.8465 115.7 19.1399C115.38 19.4332 115.197 19.8399 115.15 20.3599H118.61ZM121.661 18.9099C121.821 18.5965 122.048 18.3532 122.341 18.1799C122.641 18.0065 123.005 17.9199 123.431 17.9199V18.8599H123.191C122.171 18.8599 121.661 19.4132 121.661 20.5199V23.4999H120.751V18.0199H121.661V18.9099ZM129.482 20.5499C129.482 20.7232 129.472 20.9065 129.452 21.0999H125.072C125.105 21.6399 125.289 22.0632 125.622 22.3699C125.962 22.6699 126.372 22.8199 126.852 22.8199C127.245 22.8199 127.572 22.7299 127.832 22.5499C128.099 22.3632 128.285 22.1165 128.392 21.8099H129.372C129.225 22.3365 128.932 22.7665 128.492 23.0999C128.052 23.4265 127.505 23.5899 126.852 23.5899C126.332 23.5899 125.865 23.4732 125.452 23.2399C125.045 23.0065 124.725 22.6765 124.492 22.2499C124.259 21.8165 124.142 21.3165 124.142 20.7499C124.142 20.1832 124.255 19.6865 124.482 19.2599C124.709 18.8332 125.025 18.5065 125.432 18.2799C125.845 18.0465 126.319 17.9299 126.852 17.9299C127.372 17.9299 127.832 18.0432 128.232 18.2699C128.632 18.4965 128.939 18.8099 129.152 19.2099C129.372 19.6032 129.482 20.0499 129.482 20.5499ZM128.542 20.3599C128.542 20.0132 128.465 19.7165 128.312 19.4699C128.159 19.2165 127.949 19.0265 127.682 18.8999C127.422 18.7665 127.132 18.6999 126.812 18.6999C126.352 18.6999 125.959 18.8465 125.632 19.1399C125.312 19.4332 125.129 19.8399 125.082 20.3599H128.542ZM131.793 18.7699V21.9999C131.793 22.2665 131.85 22.4565 131.963 22.5699C132.076 22.6765 132.273 22.7299 132.553 22.7299H133.223V23.4999H132.403C131.896 23.4999 131.516 23.3832 131.263 23.1499C131.01 22.9165 130.883 22.5332 130.883 21.9999V18.7699H130.173V18.0199H130.883V16.6399H131.793V18.0199H133.223V18.7699H131.793ZM139.032 22.6599L140.732 18.0199H141.702L139.552 23.4999H138.492L136.342 18.0199H137.322L139.032 22.6599ZM142.257 20.7399C142.257 20.1799 142.37 19.6899 142.597 19.2699C142.824 18.8432 143.134 18.5132 143.527 18.2799C143.927 18.0465 144.37 17.9299 144.857 17.9299C145.337 17.9299 145.754 18.0332 146.107 18.2399C146.46 18.4465 146.724 18.7065 146.897 19.0199V18.0199H147.817V23.4999H146.897V22.4799C146.717 22.7999 146.447 23.0665 146.087 23.2799C145.734 23.4865 145.32 23.5899 144.847 23.5899C144.36 23.5899 143.92 23.4699 143.527 23.2299C143.134 22.9899 142.824 22.6532 142.597 22.2199C142.37 21.7865 142.257 21.2932 142.257 20.7399ZM146.897 20.7499C146.897 20.3365 146.814 19.9765 146.647 19.6699C146.48 19.3632 146.254 19.1299 145.967 18.9699C145.687 18.8032 145.377 18.7199 145.037 18.7199C144.697 18.7199 144.387 18.7999 144.107 18.9599C143.827 19.1199 143.604 19.3532 143.437 19.6599C143.27 19.9665 143.187 20.3265 143.187 20.7399C143.187 21.1599 143.27 21.5265 143.437 21.8399C143.604 22.1465 143.827 22.3832 144.107 22.5499C144.387 22.7099 144.697 22.7899 145.037 22.7899C145.377 22.7899 145.687 22.7099 145.967 22.5499C146.254 22.3832 146.48 22.1465 146.647 21.8399C146.814 21.5265 146.897 21.1632 146.897 20.7499ZM150.265 18.9099C150.425 18.5965 150.652 18.3532 150.945 18.1799C151.245 18.0065 151.608 17.9199 152.035 17.9199V18.8599H151.795C150.775 18.8599 150.265 19.4132 150.265 20.5199V23.4999H149.355V18.0199H150.265V18.9099ZM158.085 20.5499C158.085 20.7232 158.075 20.9065 158.055 21.0999H153.675C153.709 21.6399 153.892 22.0632 154.225 22.3699C154.565 22.6699 154.975 22.8199 155.455 22.8199C155.849 22.8199 156.175 22.7299 156.435 22.5499C156.702 22.3632 156.889 22.1165 156.995 21.8099H157.975C157.829 22.3365 157.535 22.7665 157.095 23.0999C156.655 23.4265 156.109 23.5899 155.455 23.5899C154.935 23.5899 154.469 23.4732 154.055 23.2399C153.649 23.0065 153.329 22.6765 153.095 22.2499C152.862 21.8165 152.745 21.3165 152.745 20.7499C152.745 20.1832 152.859 19.6865 153.085 19.2599C153.312 18.8332 153.629 18.5065 154.035 18.2799C154.449 18.0465 154.922 17.9299 155.455 17.9299C155.975 17.9299 156.435 18.0432 156.835 18.2699C157.235 18.4965 157.542 18.8099 157.755 19.2099C157.975 19.6032 158.085 20.0499 158.085 20.5499ZM157.145 20.3599C157.145 20.0132 157.069 19.7165 156.915 19.4699C156.762 19.2165 156.552 19.0265 156.285 18.8999C156.025 18.7665 155.735 18.6999 155.415 18.6999C154.955 18.6999 154.562 18.8465 154.235 19.1399C153.915 19.4332 153.732 19.8399 153.685 20.3599H157.145ZM160.197 18.9099C160.357 18.5965 160.583 18.3532 160.877 18.1799C161.177 18.0065 161.54 17.9199 161.967 17.9199V18.8599H161.727C160.707 18.8599 160.197 19.4132 160.197 20.5199V23.4999H159.287V18.0199H160.197V18.9099Z" fill="black"/>
</svg>
